<?xml version="1.0" encoding="UTF-8" standalone="no"?>
<!-- Created with Inkscape (http://www.inkscape.org/) -->

<svg
   xmlns:dc="http://purl.org/dc/elements/1.1/"
   xmlns:cc="http://creativecommons.org/ns#"
   xmlns:rdf="http://www.w3.org/1999/02/22-rdf-syntax-ns#"
   xmlns:svg="http://www.w3.org/2000/svg"
   xmlns="http://www.w3.org/2000/svg"
   xmlns:sodipodi="http://sodipodi.sourceforge.net/DTD/sodipodi-0.dtd"
   xmlns:inkscape="http://www.inkscape.org/namespaces/inkscape"
   width="48.712036cm"
   height="42.801998cm"
   viewBox="0 0 487.12036 428.01998"
   version="1.1"
   id="svg8"
   inkscape:version="0.92.1 r15371"
   sodipodi:docname="casing_laser.svg">
  <defs
     id="defs2" />
  <sodipodi:namedview
     id="base"
     pagecolor="#ffffff"
     bordercolor="#666666"
     borderopacity="1.0"
     inkscape:pageopacity="0.0"
     inkscape:pageshadow="2"
     inkscape:zoom="0.25000001"
     inkscape:cx="158.14017"
     inkscape:cy="738.03757"
     inkscape:document-units="mm"
     inkscape:current-layer="layer1"
     showgrid="true"
     inkscape:window-width="1366"
     inkscape:window-height="715"
     inkscape:window-x="0"
     inkscape:window-y="31"
     inkscape:window-maximized="1"
     units="cm"
     inkscape:measure-start="58.5827,109.606"
     inkscape:measure-end="0,0"
     fit-margin-top="0"
     fit-margin-left="0"
     fit-margin-right="0"
     fit-margin-bottom="0">
    <inkscape:grid
       type="xygrid"
       id="grid3713"
       units="mm"
       spacingx="0.099999999"
       spacingy="0.099999999"
       originx="-1.99"
       originy="-70.989852" />
  </sodipodi:namedview>
  <metadata
     id="metadata5">
    <rdf:RDF>
      <cc:Work
         rdf:about="">
        <dc:format>image/svg+xml</dc:format>
        <dc:type
           rdf:resource="http://purl.org/dc/dcmitype/StillImage" />
        <dc:title></dc:title>
      </cc:Work>
    </rdf:RDF>
  </metadata>
  <g
     inkscape:label="Layer 1"
     inkscape:groupmode="layer"
     id="layer1"
     transform="translate(-1.99,202.00985)">
    <path
       style="fill:none;fill-opacity:1;stroke:#000000;stroke-width:0.02;stroke-miterlimit:4;stroke-dasharray:none"
       d="m 9.0000883,-201.99985 v 2.99982 H 4.1001291 V -7.0003811 h 4.8999592 v 2.9998194 H 19.199982 V -7.0003811 H 28.9999 v 2.9998194 h 10.199893 v -2.9998194 h 9.799921 v 2.9998194 h 10.20041 v -2.9998194 h 9.799917 v 2.9998194 h 10.199894 v -2.9998194 h 9.799921 v 2.9998194 h 10.199893 v -2.9998194 h 9.799921 v 2.9998194 h 10.20041 V -7.0003811 H 129 v 2.9998194 h 10.19989 v -2.9998194 h 9.79992 v 2.9998194 h 10.1999 v -2.9998194 h 9.80043 v 2.9998194 h 10.1999 v -2.9998194 h 9.79991 v 2.9998194 h 10.1999 v -2.9998194 h 9.79992 v 2.9998194 h 10.19989 v -2.9998194 h 9.80044 v 2.9998194 h 10.19989 v -2.9998194 h 4.89996 V -199.00003 h -4.89996 v -2.99982 H 229.0001 v 2.99982 h -9.80044 v -2.99982 h -10.19989 v 2.99982 h -9.79992 v -2.99982 h -10.1999 v 2.99982 h -9.79991 v -2.99982 h -10.1999 v 2.99982 h -9.80043 v -2.99982 h -10.1999 v 2.99982 h -9.79992 v -2.99982 H 129 v 2.99982 h -9.79992 v -2.99982 h -10.20041 v 2.99982 h -9.799921 v -2.99982 H 88.999856 v 2.99982 h -9.799921 v -2.99982 H 69.000041 v 2.99982 h -9.799917 v -2.99982 h -10.20041 v 2.99982 h -9.799921 v -2.99982 H 28.9999 v 2.99982 h -9.799918 v -2.99982 z m 139.1997717,21.1 h 9.80044 v 2.79983 h -9.80044 z m 20.00033,0 h 9.79992 v 2.79983 h -9.79992 z m -78.50012,73.0002 h 2.799829 v 9.799921 H 89.70007 Z m 144.50023,35.999873 h 2.79982 v 9.799918 h -2.79982 z m 0,19.999814 h 2.79982 v 9.799918 h -2.79982 z m -86.00044,25.000024 h 9.80044 v 2.800344 h -9.80044 z m 20.00033,0 h 9.79992 v 2.800344 h -9.79992 z"
       id="rect1012"
       inkscape:connector-curvature="0" />
    <path
       style="fill:none;fill-opacity:1;stroke:#000000;stroke-width:0.02;stroke-miterlimit:4;stroke-dasharray:none"
       d="m 2,21.000003 v 84.099787 h 3.0003335 v 9.7999 H 2 v 10.1999 h 3.0003335 v 9.79993 H 2 v 10.2004 h 3.0003335 v 9.79993 H 2 v 45.10008 H 241.99982 V 23.99879 L 2.0413412,21.000003 Z M 7.1004628,85.999651 H 16.90038 v 2.80035 H 7.1004628 Z m 19.9998112,0.10025 h 9.799921 v 2.79985 h -9.799921 z m 19.999814,0 h 9.799918 v 2.79985 h -9.799918 z m 20.000328,0 h 9.79992 v 2.79985 h -9.79992 z m 19.999814,0 h 9.799915 v 2.79985 H 87.10023 Z m 19.99982,0 h 9.80043 v 2.79985 h -9.80043 z m 20.00033,0 h 9.79991 v 2.79985 h -9.79991 z m 19.99981,0 h 9.79992 v 2.79985 h -9.79992 z m 19.99981,0 h 9.80044 v 2.79985 H 167.1 Z m 20.00033,0 h 9.79992 v 2.79985 h -9.79992 z m 19.99981,0 h 9.79992 v 2.79985 h -9.79992 z m 19.99982,0 h 9.80043 v 2.79985 h -9.80043 z M 7.1004628,175.99984 H 16.90038 v 2.79982 H 7.1004628 Z m 19.9998112,0.0998 h 9.799921 v 2.80035 h -9.799921 z m 19.999814,0 h 9.799918 v 2.80035 h -9.799918 z m 20.000328,0 h 9.79992 v 2.80035 h -9.79992 z m 19.999814,0 h 9.799915 v 2.80035 H 87.10023 Z m 19.99982,0 h 9.79991 v 2.80035 h -9.79991 z m 20.00033,0 h 9.79991 v 2.80035 h -9.79991 z m 19.99981,0 h 9.79992 v 2.80035 h -9.79992 z m 19.99981,0 h 9.80044 v 2.80035 H 167.1 Z m 20.00033,0 h 9.79992 v 2.80035 h -9.79992 z m 19.99981,0 h 9.79992 v 2.80035 h -9.79992 z m 19.99982,0 h 9.80043 v 2.80035 h -9.80043 z M 120.6,184.09966 h 2.80034 v 9.79993 H 120.6 Z m 80.00028,0 h 2.79983 v 9.79993 h -2.79983 z"
       id="rect4511"
       inkscape:connector-curvature="0" />
    <path
       style="fill:none;fill-opacity:1;stroke:#000000;stroke-width:0.02;stroke-miterlimit:4;stroke-dasharray:none"
       d="M 251,-201.99982 V -199 h -4.89996 V -7.0003281 H 251 v 2.9998167 h 10.19989 v -2.9998167 h 9.79993 v 2.9998167 h 10.1999 v -2.9998167 h 9.7999 v 2.9998167 h 10.2004 v -2.9998167 h 9.79993 v 2.9998167 h 10.1999 v -2.9998167 h 9.79993 v 2.9998167 h 10.19987 v -2.9998167 h 9.79993 v 2.9998167 h 10.2004 v -2.9998167 h 9.79993 v 2.9998167 h 10.1999 v -2.9998167 h 9.7999 v 2.9998167 h 10.1999 v -2.9998167 h 9.80043 v 2.9998167 h 10.1999 v -2.9998167 h 9.79993 v 2.9998167 h 10.1999 v -2.9998167 h 9.7999 v 2.9998167 h 10.1999 V -7.0003281 H 471 v 2.9998167 h 10.1999 v -2.9998167 h 4.89995 V -199 h -4.89995 v -2.99982 H 471 V -199 h -9.80043 v -2.99982 h -10.1999 V -199 h -9.7999 v -2.99982 h -10.1999 V -199 h -9.79993 v -2.99982 h -10.1999 V -199 h -9.80043 v -2.99982 h -10.1999 V -199 h -9.7999 v -2.99982 h -10.1999 V -199 h -9.79993 v -2.99982 h -10.2004 V -199 h -9.79993 v -2.99982 H 330.99978 V -199 h -9.79993 v -2.99982 h -10.1999 V -199 h -9.79993 v -2.99982 h -10.2004 V -199 h -9.7999 v -2.99982 h -10.1999 V -199 h -9.79993 v -2.99982 z m 5.09994,17.99993 h 9.9999 v 9.99991 h -9.9999 z"
       id="rect1012-9"
       inkscape:connector-curvature="0" />
    <path
       style="fill:none;fill-opacity:1;stroke:#000000;stroke-width:0.02;stroke-miterlimit:4;stroke-dasharray:none"
       d="M 5.9999999,-1.899956 V 3.0000029 H 3.0001849 V 13.200413 h 2.999815 v 5.899909 H 198.00018 V 13.200413 H 201 V 3.0000029 h -2.99982 V -1.899956 Z"
       id="rect20"
       inkscape:connector-curvature="0" />
    <path
       inkscape:connector-curvature="0"
       style="fill:none;fill-opacity:1;stroke:#000000;stroke-width:0.02;stroke-miterlimit:4;stroke-dasharray:none"
       d="m 210,-1.899957 v 4.8999599 h -2.99982 V 13.200413 H 210 v 5.89991 h 192.00017 v -5.89991 h 2.99982 V 3.0000029 h -2.99982 V -1.899957 Z"
       id="rect20-6" />
    <path
       inkscape:connector-curvature="0"
       style="fill:none;fill-opacity:1;stroke:#000000;stroke-width:0.02;stroke-miterlimit:4;stroke-dasharray:none"
       d="m 486.90029,23.900104 v 84.099786 h -3.00033 v 9.7999 h 3.00033 v 10.1999 h -3.00033 v 9.79993 h 3.00033 v 10.2004 h -3.00033 v 9.79993 h 3.00033 v 45.10008 H 246.90047 V 26.898894 l 239.95848,-2.99879 z m -5.10046,64.999648 h -9.79992 v 2.80035 h 9.79992 z m -19.99982,0.10025 h -9.79992 v 2.79985 h 9.79992 z m -19.99981,0 h -9.79992 v 2.79985 h 9.79992 z m -20.00033,0 h -9.79992 v 2.79985 h 9.79992 z m -19.99982,0 h -9.79991 v 2.79985 h 9.79991 z m -19.9998,0 h -9.80044 v 2.79985 h 9.80044 z m -20.00033,0 H 352 v 2.79985 h 9.79992 z m -19.99982,0 h -9.79991 v 2.79985 h 9.79991 z m -19.99981,0 h -9.80043 v 2.79985 h 9.80043 z m -20.00033,0 h -9.79992 v 2.79985 h 9.79992 z m -19.99981,0 h -9.79992 v 2.79985 h 9.79992 z m -19.99981,0 h -9.80044 v 2.79985 h 9.80044 z m 219.99949,89.899938 h -9.79992 v 2.79982 h 9.79992 z m -19.99982,0.0998 h -9.79992 v 2.80035 h 9.79992 z m -19.99981,0 h -9.79992 v 2.80035 h 9.79992 z m -20.00033,0 h -9.79992 v 2.80035 h 9.79992 z m -19.99982,0 h -9.79991 v 2.80035 h 9.79991 z m -19.9998,0 h -9.79992 v 2.80035 h 9.79992 z m -20.00033,0 H 352 v 2.80035 h 9.79992 z m -19.99982,0 h -9.79991 v 2.80035 h 9.79991 z m -19.99981,0 h -9.80043 v 2.80035 h 9.80043 z m -20.00033,0 h -9.79992 v 2.80035 h 9.79992 z m -19.99981,0 h -9.79992 v 2.80035 h 9.79992 z m -19.99981,0 h -9.80044 v 2.80035 h 9.80044 z m 106.49995,8.00002 h -2.80034 v 9.79993 h 2.80034 z m -80.00028,0 h -2.79983 v 9.79993 h 2.79983 z"
       id="rect4511-3" />
    <path
       style="fill:none;fill-opacity:1;stroke:#000000;stroke-width:0.02;stroke-miterlimit:4;stroke-dasharray:none"
       d="M 407.10004,-2.9998277 V 17.000003 H 412 v 3.00032 h 10.1999 v -3.00032 h 9.79992 v 3.00032 h 10.20041 v -3.00032 h 4.89996 V -2.9998277 Z"
       id="rect3833"
       inkscape:connector-curvature="0" />
    <path
       inkscape:connector-curvature="0"
       style="fill:none;fill-opacity:1;stroke:#000000;stroke-width:0.02;stroke-miterlimit:4;stroke-dasharray:none"
       d="M 449.10022,-1.9998274 V 18.000003 h 4.89996 v 3.00032 h 10.1999 v -3.00032 H 474 v 3.00032 h 10.20041 v -3.00032 h 4.89995 V -1.9998274 Z"
       id="rect3833-9" />
    <path
       style="fill:none;fill-opacity:1;stroke:#000000;stroke-width:0.02;stroke-miterlimit:4;stroke-dasharray:none"
       d="m 46,203 v 19.9998 h 4.89996 v 3.00035 h 10.1999 v -3.00035 h 4.90047 V 203 Z"
       id="rect3868"
       inkscape:connector-curvature="0" />
    <path
       style="fill:none;fill-opacity:1;stroke:#000000;stroke-width:0.02;stroke-miterlimit:4;stroke-dasharray:none"
       d="m 4,203 v 15.00013 h 4.8999591 v 3.00032 H 19.099853 v -3.00032 h 9.79992 v 3.00032 h 10.20041 v -3.00032 h 4.899958 V 203 h -5.15e-4 -1.100191 z"
       id="rect3833-9-3"
       inkscape:connector-curvature="0" />
  </g>
</svg>
